<?xml version="1.0" standalone="no"?>
<!DOCTYPE svg PUBLIC "-//W3C//DTD SVG 20010904//EN"
 "http://www.w3.org/TR/2001/REC-SVG-20010904/DTD/svg10.dtd">
<svg version="1.0" xmlns="http://www.w3.org/2000/svg"
 width="700.000000pt" height="700.000000pt" viewBox="0 0 700.000000 700.000000"
 preserveAspectRatio="xMidYMid meet">
<metadata>
Created by potrace 1.14, written by Peter Selinger 2001-2017
</metadata>
<g transform="translate(0.000000,700.000000) scale(0.100000,-0.100000)"
fill="#000000" stroke="none">
<path d="M1278 6580 c-477 -76 -832 -459 -864 -934 -16 -234 62 -487 208 -674
27 -35 366 -380 754 -768 l704 -704 -710 -710 c-390 -391 -732 -741 -761 -778
-68 -90 -134 -227 -165 -348 -22 -83 -27 -122 -28 -239 -1 -183 27 -309 104
-458 114 -224 300 -394 531 -485 126 -50 218 -67 369 -66 152 0 255 21 388 76
172 71 200 97 973 869 l719 719 709 -709 c390 -390 740 -732 778 -761 89 -68
231 -135 351 -167 134 -36 343 -38 475 -5 191 48 336 130 477 271 143 144 219
278 271 477 19 73 23 115 23 229 0 157 -19 257 -76 393 -71 172 -97 200 -869
973 l-719 719 719 719 c773 773 798 802 869 973 57 136 76 235 76 393 0 161
-19 255 -78 393 -53 123 -117 216 -220 317 -139 138 -284 220 -472 267 -133
33 -342 31 -476 -5 -53 -14 -127 -40 -165 -57 -167 -77 -195 -102 -954 -861
l-719 -719 -719 719 c-761 760 -790 786 -957 862 -152 69 -391 103 -546 79z"/>
</g>
</svg>
