<svg width="5072" height="1230" viewBox="0 0 5072 1230" fill="none" xmlns="http://www.w3.org/2000/svg">
<g filter="url(#filter0_d_18_130)">
<rect opacity="0.86" x="590" y="152" width="168.044" height="12.5406" rx="6.27031" fill="#1BD9EF" fill-opacity="0.2"/>
<rect opacity="0.97" x="779" y="65" width="182.312" height="13.6054" rx="6.80269" fill="#1BD9EF" fill-opacity="0.2"/>
<rect opacity="0.94" x="1062" y="224" width="128.411" height="9.58292" rx="4.79146" fill="#1BD9EF" fill-opacity="0.2"/>
<rect opacity="0.8" x="1337" y="101" width="177.556" height="13.2505" rx="6.62523" fill="#1BD9EF" fill-opacity="0.2"/>
<rect opacity="0.89" x="1746" y="202" width="104.631" height="7.80831" rx="3.90415" fill="#1BD9EF" fill-opacity="0.2"/>
<rect opacity="0.75" x="2006" y="132" width="179.141" height="13.3688" rx="6.68438" fill="#1BD9EF" fill-opacity="0.2"/>
<rect opacity="0.71" x="370" y="323.167" width="110.973" height="8.28154" rx="4.14077" fill="#1BD9EF" fill-opacity="0.2"/>
<rect opacity="0.8" x="736" y="354.167" width="185.483" height="13.842" rx="6.921" fill="#1BD9EF" fill-opacity="0.2"/>
<rect opacity="0.72" x="1203" y="340.167" width="106.217" height="7.92661" rx="3.96331" fill="#1BD9EF" fill-opacity="0.2"/>
<rect opacity="0.7" x="1282" y="394.167" width="115.729" height="8.63646" rx="4.31823" fill="#1BD9EF" fill-opacity="0.2"/>
<rect opacity="0.81" x="1554" y="356.167" width="188.653" height="14.0786" rx="7.03931" fill="#1BD9EF" fill-opacity="0.2"/>
<rect opacity="0.72" x="2019" y="377.167" width="117.314" height="8.75477" rx="4.37738" fill="#1BD9EF" fill-opacity="0.2"/>
<rect opacity="0.92" x="481" y="442.333" width="99.8753" height="7.45338" rx="3.72669" fill="#1BD9EF" fill-opacity="0.2"/>
<rect opacity="0.72" x="693" y="462.333" width="187.068" height="13.9603" rx="6.98015" fill="#1BD9EF" fill-opacity="0.2"/>
<rect opacity="0.79" x="1135" y="582.333" width="141.094" height="10.5294" rx="5.26469" fill="#1BD9EF" fill-opacity="0.2"/>
<rect opacity="0.8" x="1234" y="496.333" width="180.727" height="13.4871" rx="6.74354" fill="#1BD9EF" fill-opacity="0.2"/>
<rect opacity="0.96" x="1638" y="604.333" width="122.07" height="9.10969" rx="4.55484" fill="#1BD9EF" fill-opacity="0.2"/>
<rect opacity="0.98" x="2029" y="525.333" width="190.239" height="14.1969" rx="7.09846" fill="#1BD9EF" fill-opacity="0.2"/>
<rect opacity="0.73" x="388" y="690.5" width="98.29" height="7.33507" rx="3.66754" fill="#1BD9EF" fill-opacity="0.2"/>
<rect opacity="0.82" x="826" y="628.5" width="125.24" height="9.3463" rx="4.67315" fill="#1BD9EF" fill-opacity="0.2"/>
<rect opacity="0.98" x="1048" y="709.5" width="172.8" height="12.8955" rx="6.44777" fill="#1BD9EF" fill-opacity="0.2"/>
<rect opacity="0.94" x="1223" y="801.5" width="98.29" height="7.33507" rx="3.66754" fill="#1BD9EF" fill-opacity="0.2"/>
<rect opacity="0.78" x="1748" y="636.5" width="131.582" height="9.81954" rx="4.90977" fill="#1BD9EF" fill-opacity="0.2"/>
<rect opacity="0.74" x="1980" y="766.5" width="147.435" height="11.0026" rx="5.50131" fill="#1BD9EF" fill-opacity="0.2"/>
<rect opacity="0.72" x="623" y="925.667" width="180.727" height="13.4871" rx="6.74354" fill="#1BD9EF" fill-opacity="0.2"/>
<rect opacity="0.97" x="667" y="986.667" width="120.485" height="8.99138" rx="4.49569" fill="#1BD9EF" fill-opacity="0.2"/>
<rect opacity="0.98" x="955" y="955.667" width="145.85" height="10.8843" rx="5.44215" fill="#1BD9EF" fill-opacity="0.2"/>
<rect opacity="0.74" x="1326" y="909.667" width="169.63" height="12.6589" rx="6.32946" fill="#1BD9EF" fill-opacity="0.2"/>
<rect opacity="0.92" x="1567" y="924.667" width="166.459" height="12.4223" rx="6.21115" fill="#1BD9EF" fill-opacity="0.2"/>
<rect opacity="0.74" x="1847" y="937.667" width="99.8753" height="7.45338" rx="3.72669" fill="#1BD9EF" fill-opacity="0.2"/>
<rect opacity="0.99" x="526" y="1023.83" width="169.63" height="12.6589" rx="6.32946" fill="#1BD9EF" fill-opacity="0.2"/>
<rect opacity="0.71" x="671" y="1146.83" width="149.02" height="11.1209" rx="5.56046" fill="#1BD9EF" fill-opacity="0.2"/>
<rect opacity="0.73" x="1098" y="1095.83" width="118.899" height="8.87307" rx="4.43654" fill="#1BD9EF" fill-opacity="0.2"/>
<rect opacity="0.85" x="1393" y="1129.83" width="160.118" height="11.9491" rx="5.97454" fill="#1BD9EF" fill-opacity="0.2"/>
<rect opacity="0.74" x="1609" y="1172.83" width="149.02" height="11.1209" rx="5.56046" fill="#1BD9EF" fill-opacity="0.2"/>
<rect opacity="0.8" x="1965" y="1042.83" width="179.141" height="13.3688" rx="6.68438" fill="#1BD9EF" fill-opacity="0.2"/>
<rect opacity="0.99" x="70" y="285" width="362.26" height="27.14" rx="13.57" fill="#1BD9EF"/>
<rect opacity="0.71" x="497.6" y="152" width="349.98" height="26.22" rx="13.11" fill="#1BD9EF"/>
<rect opacity="0.97" x="765.2" y="270" width="291.65" height="21.85" rx="10.925" fill="#1BD9EF"/>
<rect opacity="0.8" x="1257.8" y="153" width="340.77" height="25.53" rx="12.765" fill="#1BD9EF"/>
<rect opacity="0.87" x="1427.4" y="266" width="288.58" height="21.62" rx="10.81" fill="#1BD9EF"/>
<rect x="138" y="427.4" width="190.34" height="14.26" rx="7.13" fill="#1BD9EF"/>
<rect opacity="0.83" x="424.6" y="339.4" width="190.34" height="14.26" rx="7.13" fill="#1BD9EF"/>
<rect opacity="0.89" x="781.2" y="384.4" width="337.7" height="25.3" rx="12.65" fill="#1BD9EF"/>
<rect opacity="0.95" x="1286.8" y="385.4" width="273.23" height="20.47" rx="10.235" fill="#1BD9EF"/>
<rect opacity="0.71" x="1731.4" y="473.4" width="346.91" height="25.99" rx="12.995" fill="#1BD9EF"/>
<rect opacity="0.76" x="220" y="653.8" width="282.44" height="21.16" rx="10.58" fill="#1BD9EF"/>
<rect opacity="0.96" x="597.6" y="626.8" width="245.6" height="18.4" rx="9.2" fill="#1BD9EF"/>
<rect opacity="0.85" x="802.2" y="669.8" width="356.12" height="26.68" rx="13.34" fill="#1BD9EF"/>
<rect opacity="0.96" x="1229.8" y="661.8" width="313.14" height="23.46" rx="11.73" fill="#1BD9EF"/>
<rect opacity="0.75" x="1517.4" y="713.8" width="199.55" height="14.95" rx="7.475" fill="#1BD9EF"/>
<rect opacity="0.82" x="306" y="843.2" width="242.53" height="18.17" rx="9.085" fill="#1BD9EF"/>
<rect opacity="0.7" x="627.6" y="931.2" width="300.86" height="22.54" rx="11.27" fill="#1BD9EF"/>
<rect opacity="0.97" x="1000.2" y="951.2" width="184.2" height="13.8" rx="6.9" fill="#1BD9EF"/>
<rect opacity="0.73" x="1070.8" y="897.2" width="325.42" height="24.38" rx="12.19" fill="#1BD9EF"/>
<rect opacity="0.86" x="1497.4" y="792.2" width="285.51" height="21.39" rx="10.695" fill="#1BD9EF"/>
<rect opacity="0.81" x="29" y="1175.6" width="334.63" height="25.07" rx="12.535" fill="#1BD9EF"/>
<rect opacity="0.81" x="540.6" y="1172.6" width="273.23" height="20.47" rx="10.235" fill="#1BD9EF"/>
<rect opacity="0.94" x="778.2" y="1047.6" width="319.28" height="23.92" rx="11.96" fill="#1BD9EF"/>
<rect opacity="0.81" x="1102.8" y="971.6" width="303.93" height="22.77" rx="11.385" fill="#1BD9EF"/>
<rect opacity="0.78" x="1432.4" y="971.6" width="239.46" height="17.94" rx="8.97" fill="#1BD9EF"/>
</g>
<g filter="url(#filter1_d_18_130)">
<rect opacity="0.86" x="3413" y="116" width="168.044" height="12.5406" rx="6.27031" fill="#FC8EE9" fill-opacity="0.2"/>
<rect opacity="0.97" x="3602" y="29" width="182.312" height="13.6054" rx="6.80269" fill="#FC8EE9" fill-opacity="0.2"/>
<rect opacity="0.94" x="3885" y="188" width="128.411" height="9.58292" rx="4.79146" fill="#FC8EE9" fill-opacity="0.2"/>
<rect opacity="0.8" x="4160" y="65" width="177.556" height="13.2505" rx="6.62523" fill="#FC8EE9" fill-opacity="0.2"/>
<rect opacity="0.89" x="4569" y="166" width="104.631" height="7.80831" rx="3.90415" fill="#FC8EE9" fill-opacity="0.2"/>
<rect opacity="0.75" x="4829" y="96" width="179.141" height="13.3688" rx="6.68438" fill="#FC8EE9" fill-opacity="0.2"/>
<rect opacity="0.71" x="3193" y="287.167" width="110.973" height="8.28154" rx="4.14077" fill="#FC8EE9" fill-opacity="0.2"/>
<rect opacity="0.8" x="3559" y="318.167" width="185.483" height="13.842" rx="6.921" fill="#FC8EE9" fill-opacity="0.2"/>
<rect opacity="0.72" x="4026" y="304.167" width="106.217" height="7.92661" rx="3.96331" fill="#FC8EE9" fill-opacity="0.2"/>
<rect opacity="0.7" x="4105" y="358.167" width="115.729" height="8.63646" rx="4.31823" fill="#FC8EE9" fill-opacity="0.2"/>
<rect opacity="0.81" x="4377" y="320.167" width="188.653" height="14.0786" rx="7.03931" fill="#FC8EE9" fill-opacity="0.2"/>
<rect opacity="0.72" x="4842" y="341.167" width="117.314" height="8.75477" rx="4.37738" fill="#FC8EE9" fill-opacity="0.2"/>
<rect opacity="0.92" x="3304" y="406.333" width="99.8753" height="7.45338" rx="3.72669" fill="#FC8EE9" fill-opacity="0.2"/>
<rect opacity="0.72" x="3516" y="426.333" width="187.068" height="13.9603" rx="6.98015" fill="#FC8EE9" fill-opacity="0.2"/>
<rect opacity="0.79" x="3958" y="546.333" width="141.094" height="10.5294" rx="5.26469" fill="#FC8EE9" fill-opacity="0.2"/>
<rect opacity="0.8" x="4057" y="460.333" width="180.727" height="13.4871" rx="6.74354" fill="#FC8EE9" fill-opacity="0.2"/>
<rect opacity="0.96" x="4461" y="568.333" width="122.07" height="9.10969" rx="4.55484" fill="#FC8EE9" fill-opacity="0.2"/>
<rect opacity="0.98" x="4852" y="489.333" width="190.239" height="14.1969" rx="7.09846" fill="#FC8EE9" fill-opacity="0.2"/>
<rect opacity="0.73" x="3211" y="654.5" width="98.29" height="7.33507" rx="3.66754" fill="#FC8EE9" fill-opacity="0.2"/>
<rect opacity="0.82" x="3649" y="592.5" width="125.24" height="9.3463" rx="4.67315" fill="#FC8EE9" fill-opacity="0.2"/>
<rect opacity="0.98" x="3871" y="673.5" width="172.8" height="12.8955" rx="6.44777" fill="#FC8EE9" fill-opacity="0.2"/>
<rect opacity="0.94" x="4046" y="765.5" width="98.29" height="7.33507" rx="3.66754" fill="#FC8EE9" fill-opacity="0.2"/>
<rect opacity="0.78" x="4571" y="600.5" width="131.582" height="9.81954" rx="4.90977" fill="#FC8EE9" fill-opacity="0.2"/>
<rect opacity="0.74" x="4803" y="730.5" width="147.435" height="11.0026" rx="5.50131" fill="#FC8EE9" fill-opacity="0.2"/>
<rect opacity="0.72" x="3446" y="889.667" width="180.727" height="13.4871" rx="6.74354" fill="#FC8EE9" fill-opacity="0.2"/>
<rect opacity="0.97" x="3490" y="950.667" width="120.485" height="8.99138" rx="4.49569" fill="#FC8EE9" fill-opacity="0.2"/>
<rect opacity="0.98" x="3778" y="919.667" width="145.85" height="10.8843" rx="5.44215" fill="#FC8EE9" fill-opacity="0.2"/>
<rect opacity="0.74" x="4149" y="873.667" width="169.63" height="12.6589" rx="6.32946" fill="#FC8EE9" fill-opacity="0.2"/>
<rect opacity="0.92" x="4390" y="888.667" width="166.459" height="12.4223" rx="6.21115" fill="#FC8EE9" fill-opacity="0.2"/>
<rect opacity="0.74" x="4670" y="901.667" width="99.8753" height="7.45338" rx="3.72669" fill="#FC8EE9" fill-opacity="0.2"/>
<rect opacity="0.99" x="3349" y="987.833" width="169.63" height="12.6589" rx="6.32946" fill="#FC8EE9" fill-opacity="0.2"/>
<rect opacity="0.71" x="3494" y="1110.83" width="149.02" height="11.1209" rx="5.56046" fill="#FC8EE9" fill-opacity="0.2"/>
<rect opacity="0.73" x="3921" y="1059.83" width="118.899" height="8.87307" rx="4.43654" fill="#FC8EE9" fill-opacity="0.2"/>
<rect opacity="0.85" x="4216" y="1093.83" width="160.118" height="11.9491" rx="5.97454" fill="#FC8EE9" fill-opacity="0.2"/>
<rect opacity="0.74" x="4432" y="1136.83" width="149.02" height="11.1209" rx="5.56046" fill="#FC8EE9" fill-opacity="0.2"/>
<rect opacity="0.8" x="4788" y="1006.83" width="179.141" height="13.3688" rx="6.68438" fill="#FC8EE9" fill-opacity="0.2"/>
<rect opacity="0.99" x="2937" y="221" width="362.26" height="27.14" rx="13.57" fill="#F035C2"/>
<rect opacity="0.71" x="3364.6" y="88" width="349.98" height="26.22" rx="13.11" fill="#F035C2"/>
<rect opacity="0.97" x="3632.2" y="206" width="291.65" height="21.85" rx="10.925" fill="#F035C2"/>
<rect opacity="0.8" x="4124.8" y="89" width="340.77" height="25.53" rx="12.765" fill="#F035C2"/>
<rect opacity="0.87" x="4294.4" y="202" width="288.58" height="21.62" rx="10.81" fill="#F035C2"/>
<rect x="3005" y="363.4" width="190.34" height="14.26" rx="7.13" fill="#F035C2"/>
<rect opacity="0.83" x="3291.6" y="275.4" width="190.34" height="14.26" rx="7.13" fill="#F035C2"/>
<rect opacity="0.89" x="3648.2" y="320.4" width="337.7" height="25.3" rx="12.65" fill="#F035C2"/>
<rect opacity="0.95" x="4153.8" y="321.4" width="273.23" height="20.47" rx="10.235" fill="#F035C2"/>
<rect opacity="0.71" x="4598.4" y="409.4" width="346.91" height="25.99" rx="12.995" fill="#F035C2"/>
<rect opacity="0.76" x="3087" y="589.8" width="282.44" height="21.16" rx="10.58" fill="#F035C2"/>
<rect opacity="0.96" x="3464.6" y="562.8" width="245.6" height="18.4" rx="9.2" fill="#F035C2"/>
<rect opacity="0.85" x="3669.2" y="605.8" width="356.12" height="26.68" rx="13.34" fill="#F035C2"/>
<rect opacity="0.96" x="4096.8" y="597.8" width="313.14" height="23.46" rx="11.73" fill="#F035C2"/>
<rect opacity="0.75" x="4384.4" y="649.8" width="199.55" height="14.95" rx="7.475" fill="#F035C2"/>
<rect opacity="0.82" x="3173" y="779.2" width="242.53" height="18.17" rx="9.085" fill="#F035C2"/>
<rect opacity="0.7" x="3494.6" y="867.2" width="300.86" height="22.54" rx="11.27" fill="#F035C2"/>
<rect opacity="0.97" x="3867.2" y="887.2" width="184.2" height="13.8" rx="6.9" fill="#F035C2"/>
<rect opacity="0.73" x="3937.8" y="833.2" width="325.42" height="24.38" rx="12.19" fill="#F035C2"/>
<rect opacity="0.86" x="4364.4" y="728.2" width="285.51" height="21.39" rx="10.695" fill="#F035C2"/>
<rect opacity="0.81" x="2896" y="1111.6" width="334.63" height="25.07" rx="12.535" fill="#F035C2"/>
<rect opacity="0.81" x="3407.6" y="1108.6" width="273.23" height="20.47" rx="10.235" fill="#F035C2"/>
<rect opacity="0.94" x="3645.2" y="983.6" width="319.28" height="23.92" rx="11.96" fill="#F035C2"/>
<rect opacity="0.81" x="3969.8" y="907.6" width="303.93" height="22.77" rx="11.385" fill="#F035C2"/>
<rect opacity="0.78" x="4299.4" y="907.6" width="239.46" height="17.94" rx="8.97" fill="#F035C2"/>
</g>
<defs>
<filter id="filter0_d_18_130" x="0" y="36" width="2248.24" height="1193.67" filterUnits="userSpaceOnUse" color-interpolation-filters="sRGB">
<feFlood flood-opacity="0" result="BackgroundImageFix"/>
<feColorMatrix in="SourceAlpha" type="matrix" values="0 0 0 0 0 0 0 0 0 0 0 0 0 0 0 0 0 0 127 0" result="hardAlpha"/>
<feOffset/>
<feGaussianBlur stdDeviation="14.5"/>
<feComposite in2="hardAlpha" operator="out"/>
<feColorMatrix type="matrix" values="0 0 0 0 0.105882 0 0 0 0 0.85098 0 0 0 0 0.937255 0 0 0 0.5 0"/>
<feBlend mode="normal" in2="BackgroundImageFix" result="effect1_dropShadow_18_130"/>
<feBlend mode="normal" in="SourceGraphic" in2="effect1_dropShadow_18_130" result="shape"/>
</filter>
<filter id="filter1_d_18_130" x="2867" y="0" width="2204.24" height="1176.95" filterUnits="userSpaceOnUse" color-interpolation-filters="sRGB">
<feFlood flood-opacity="0" result="BackgroundImageFix"/>
<feColorMatrix in="SourceAlpha" type="matrix" values="0 0 0 0 0 0 0 0 0 0 0 0 0 0 0 0 0 0 127 0" result="hardAlpha"/>
<feOffset/>
<feGaussianBlur stdDeviation="14.5"/>
<feComposite in2="hardAlpha" operator="out"/>
<feColorMatrix type="matrix" values="0 0 0 0 0.988235 0 0 0 0 0.556863 0 0 0 0 0.913725 0 0 0 0.5 0"/>
<feBlend mode="normal" in2="BackgroundImageFix" result="effect1_dropShadow_18_130"/>
<feBlend mode="normal" in="SourceGraphic" in2="effect1_dropShadow_18_130" result="shape"/>
</filter>
</defs>
</svg>
