<svg width="122" height="71" viewBox="0 0 122 71" fill="none" xmlns="http://www.w3.org/2000/svg">
<path d="M7.46311 14.4631C7.46588 14.9418 7.36346 15.4153 7.16311 15.8501C6.96789 16.2777 6.69182 16.6634 6.35011 16.9861C5.998 17.3161 5.58908 17.5797 5.14311 17.7641C4.67885 17.9581 4.18024 18.0563 3.67711 18.0531C3.18975 18.0571 2.70699 17.9586 2.26011 17.7641C1.82666 17.5764 1.43013 17.313 1.08911 16.9861C0.750768 16.663 0.478986 16.2767 0.28911 15.8491C0.0952893 15.4126 -0.00323402 14.9397 0.000110067 14.4621C-0.00376448 13.9751 0.0946941 13.4927 0.28911 13.0461C0.478681 12.6125 0.750337 12.2196 1.08911 11.8891C1.4256 11.5586 1.82155 11.2946 2.25611 11.1111C2.70465 10.923 3.18675 10.8281 3.67311 10.8321C4.17527 10.8289 4.67324 10.9237 5.13911 11.1111C5.58873 11.2894 5.99987 11.5525 6.35011 11.8861C6.69414 12.216 6.97181 12.6088 7.16811 13.0431C7.36794 13.4896 7.46859 13.974 7.46311 14.4631V14.4631ZM6.75011 20.1281V40.8171H0.56111V20.1281H6.75011Z" fill="white"/>
<path d="M11.2781 40.8171V20.1291H15.1091C15.4501 20.1172 15.787 20.2078 16.0761 20.3891C16.3448 20.5757 16.539 20.8512 16.6241 21.1671L16.9831 22.3671C17.3765 21.9995 17.7894 21.6534 18.2201 21.3301C18.6447 21.0114 19.1031 20.7404 19.5871 20.5221C20.0933 20.2957 20.6214 20.1218 21.1631 20.0031C21.7693 19.8724 22.388 19.8086 23.0081 19.8131C24.0386 19.7938 25.0614 19.9946 26.0081 20.4021C26.8561 20.7758 27.6101 21.3341 28.2151 22.0361C28.8316 22.767 29.2933 23.6155 29.5721 24.5301C29.8858 25.5476 30.0406 26.6074 30.0311 27.6721V40.8191H23.8461V27.6701C23.8967 26.8245 23.649 25.9879 23.1461 25.3061C22.8918 25.0163 22.5741 24.7891 22.2177 24.642C21.8613 24.4949 21.4758 24.432 21.0911 24.4581C20.4274 24.455 19.7721 24.6052 19.1761 24.8971C18.5519 25.2074 17.9743 25.6036 17.4601 26.0741V40.8171H11.2781Z" fill="white"/>
<path d="M47.5211 24.6581C47.3963 24.875 47.2223 25.0597 47.0131 25.1971C46.8024 25.3114 46.5647 25.3667 46.3251 25.3571C46.0226 25.3554 45.7236 25.291 45.4471 25.1681L44.4991 24.7591C44.1251 24.6006 43.7421 24.464 43.3521 24.3501C42.8781 24.2172 42.3874 24.1532 41.8951 24.1601C41.2612 24.1201 40.6305 24.2769 40.0891 24.6091C39.8878 24.7471 39.7246 24.9338 39.6148 25.1519C39.505 25.3699 39.4521 25.6122 39.4611 25.8561C39.4563 26.0358 39.4904 26.2145 39.561 26.3798C39.6316 26.5451 39.737 26.6933 39.8701 26.8141C40.1915 27.0974 40.5592 27.3234 40.9571 27.4821C41.4588 27.6927 41.9715 27.8756 42.4931 28.0301C43.0645 28.2035 43.6495 28.3964 44.2481 28.6091C44.8482 28.8224 45.4346 29.0722 46.0041 29.3571C46.5638 29.6346 47.081 29.9905 47.5401 30.4141C48.0008 30.8451 48.3704 31.364 48.6271 31.9401C48.9161 32.6209 49.0556 33.3558 49.0361 34.0951C49.0463 35.0678 48.856 36.0322 48.4771 36.9281C48.1044 37.793 47.5338 38.5582 46.8111 39.1621C46.0055 39.8236 45.0766 40.3185 44.0781 40.6181C42.8656 40.9825 41.6041 41.1575 40.3381 41.1371C39.6284 41.1364 38.9204 41.0694 38.2231 40.9371C37.5293 40.8072 36.8458 40.6271 36.1781 40.3981C35.5465 40.1841 34.9353 39.9137 34.3521 39.5901C33.8376 39.3087 33.356 38.971 32.9161 38.5831L34.3521 36.3091C34.5106 36.0578 34.7214 35.8436 34.9701 35.6811C35.2545 35.5168 35.58 35.4373 35.9081 35.4521C36.246 35.4466 36.5796 35.529 36.8761 35.6911L37.8041 36.2101C38.1781 36.415 38.5685 36.5886 38.9711 36.7291C39.5156 36.9035 40.0857 36.9843 40.6571 36.9681C41.0679 36.9767 41.4778 36.9262 41.8741 36.8181C42.1666 36.7397 42.4393 36.6003 42.6741 36.4091C42.8558 36.2583 43.0018 36.0692 43.1017 35.8554C43.2016 35.6415 43.253 35.4082 43.2521 35.1721C43.258 34.9826 43.2237 34.7941 43.1514 34.6188C43.0792 34.4435 42.9707 34.2855 42.8331 34.1551C42.5104 33.862 42.1379 33.629 41.7331 33.4671C41.2292 33.2563 40.7129 33.0763 40.1871 32.9281C39.6085 32.7621 39.0198 32.5724 38.4211 32.3591C37.8157 32.1436 37.2256 31.887 36.6551 31.5911C36.0828 31.2965 35.5609 30.9127 35.1091 30.4541C34.6378 29.9678 34.2644 29.3954 34.0091 28.7681C33.711 27.9991 33.5685 27.1786 33.5901 26.3541C33.5873 25.4948 33.7605 24.6439 34.0991 23.8541C34.445 23.0535 34.9665 22.3409 35.6251 21.7691C36.3743 21.1309 37.2418 20.6463 38.1781 20.3431C39.3378 19.97 40.5512 19.7912 41.7691 19.8141C42.4951 19.8126 43.2197 19.8796 43.9331 20.0141C44.604 20.1394 45.2618 20.3265 45.8981 20.5731C46.4837 20.7992 47.0451 21.0833 47.5741 21.4211C48.0563 21.7284 48.5045 22.0861 48.9111 22.4881L47.5211 24.6581Z" fill="white"/>
<path d="M52.2012 47.3801V20.1291H56.0312C56.3726 20.1171 56.7097 20.2077 56.9992 20.3891C57.2679 20.5757 57.462 20.8513 57.5472 21.1671L58.0062 22.6831C58.4005 22.2475 58.831 21.846 59.2932 21.4831C59.7519 21.1238 60.2465 20.8129 60.7692 20.5551C61.3115 20.2901 61.8817 20.0861 62.4692 19.9471C63.1199 19.7959 63.7862 19.7224 64.4542 19.7281C65.4952 19.7195 66.5224 19.966 67.4462 20.4461C68.387 20.9453 69.1996 21.6555 69.8202 22.5211C70.5338 23.5275 71.064 24.6522 71.3862 25.8431C71.7836 27.2955 71.9748 28.7965 71.9542 30.3021C71.9685 31.7638 71.7498 33.2183 71.3062 34.6111C70.9129 35.8548 70.298 37.0172 69.4912 38.0421C68.7364 38.994 67.7833 39.77 66.6982 40.3161C65.5796 40.8693 64.3459 41.1496 63.0982 41.1341C62.1725 41.1607 61.2506 41.0047 60.3852 40.6751C59.6583 40.3722 58.9847 39.9545 58.3902 39.4381V47.3781L52.2012 47.3801ZM62.2952 24.4581C61.8825 24.454 61.4708 24.4976 61.0682 24.5881C60.7152 24.6697 60.3734 24.7936 60.0502 24.9571C59.7342 25.1188 59.4421 25.3234 59.1822 25.5651C58.8975 25.8302 58.6302 26.1135 58.3822 26.4131V35.1911C58.7923 35.6706 59.3124 36.0436 59.8982 36.2781C60.4465 36.485 61.0281 36.5897 61.6142 36.5871C62.1582 36.5932 62.6967 36.4774 63.1902 36.2481C63.6937 36.001 64.1236 35.6262 64.4372 35.1611C64.8301 34.5691 65.1108 33.9098 65.2652 33.2161C65.4819 32.2607 65.5826 31.2827 65.5652 30.3031C65.5806 29.3797 65.5005 28.4571 65.3262 27.5501C65.2081 26.9144 64.9822 26.3036 64.6582 25.7441C64.4145 25.3256 64.0588 24.9834 63.6312 24.7561C63.2153 24.5534 62.7577 24.4514 62.2952 24.4581V24.4581Z" fill="white"/>
<path d="M81.6462 20.1291H75.4622V40.8171H81.6462V20.1291Z" fill="white"/>
<path d="M86.6371 40.8171V20.1291H90.3081C90.5664 20.124 90.8244 20.1509 91.0761 20.2091C91.265 20.2537 91.4421 20.3387 91.5951 20.4581C91.7389 20.5773 91.8489 20.7321 91.9141 20.9071C91.9964 21.1273 92.0596 21.3541 92.1031 21.5851L92.4421 23.5201C93.1126 22.4442 93.9789 21.5037 94.9961 20.7471C95.891 20.0853 96.975 19.7287 98.0881 19.7301C98.9013 19.6898 99.7038 19.9291 100.362 20.4081L99.5621 24.9571C99.5366 25.1872 99.4221 25.3983 99.2431 25.5451C99.0533 25.6669 98.8303 25.7263 98.6051 25.7151C98.3362 25.7106 98.0683 25.6804 97.8051 25.6251C97.4231 25.5589 97.0357 25.5287 96.6481 25.5351C95.8273 25.5512 95.0288 25.8047 94.3491 26.2651C93.6693 26.7255 93.1376 27.3729 92.8181 28.1291V40.8171H86.6371Z" fill="white"/>
<path d="M111.969 19.8101C113.251 19.795 114.524 20.0111 115.729 20.4481C116.828 20.8496 117.828 21.4822 118.662 22.3031C119.504 23.1513 120.156 24.1679 120.577 25.2861C121.054 26.5649 121.287 27.9215 121.265 29.2861C121.27 29.666 121.25 30.0458 121.205 30.4231C121.181 30.669 121.106 30.9072 120.986 31.1231C120.889 31.2884 120.737 31.4152 120.557 31.4821C120.335 31.5552 120.103 31.589 119.869 31.5821H107.939C107.995 32.9846 108.554 34.32 109.515 35.3431C110.421 36.1416 111.6 36.5597 112.807 36.5101C113.435 36.5232 114.062 36.4358 114.662 36.2511C115.139 36.0957 115.603 35.9021 116.049 35.6721C116.454 35.4595 116.827 35.2668 117.166 35.0941C117.496 34.9238 117.862 34.835 118.233 34.8351C118.45 34.8228 118.666 34.8659 118.861 34.9602C119.057 35.0545 119.225 35.1969 119.35 35.3741L121.15 37.5881C120.555 38.2827 119.859 38.8843 119.085 39.3731C118.372 39.8201 117.609 40.1816 116.811 40.4501C116.052 40.7051 115.271 40.8856 114.477 40.9891C113.74 41.0858 112.997 41.1356 112.253 41.1381C110.862 41.1483 109.48 40.9085 108.173 40.4301C106.926 39.9741 105.79 39.2583 104.841 38.3301C103.854 37.3444 103.086 36.1617 102.587 34.8591C102.007 33.317 101.726 31.6784 101.759 30.0311C101.752 28.6887 101.992 27.3565 102.467 26.1011C102.922 24.8802 103.623 23.7655 104.525 22.8254C105.428 21.8854 106.513 21.14 107.714 20.6351C109.061 20.07 110.509 19.7891 111.969 19.8101V19.8101ZM112.089 24.0791C111.583 24.0495 111.076 24.1235 110.599 24.2966C110.122 24.4698 109.686 24.7384 109.316 25.0861C108.587 25.8931 108.127 26.9064 107.999 27.9861H115.72C115.721 27.5011 115.657 27.0182 115.53 26.5501C115.41 26.0972 115.2 25.6731 114.912 25.3031C114.61 24.9244 114.224 24.6205 113.785 24.4151C113.253 24.1762 112.673 24.0613 112.089 24.0791V24.0791Z" fill="white"/>
<path d="M82.365 3.63112C82.3678 4.10984 82.2654 4.58332 82.0651 5.01812C81.8682 5.44627 81.5904 5.83235 81.2471 6.15512C80.895 6.48514 80.486 6.74872 80.0401 6.93312C79.5758 7.12706 79.0772 7.22535 78.5741 7.22212C78.086 7.22607 77.6025 7.12726 77.1551 6.93212C76.7231 6.74393 76.3279 6.48051 75.9881 6.15412C75.6499 5.83084 75.3781 5.4446 75.188 5.01712C74.9942 4.58058 74.8957 4.10774 74.899 3.63012C74.895 3.14276 74.9935 2.65999 75.188 2.21312C75.3777 1.77955 75.6494 1.3867 75.9881 1.05612C76.3246 0.725911 76.7206 0.462285 77.1551 0.279121C77.6036 0.0910407 78.0857 -0.00388172 78.572 0.000121549C79.0742 -0.00312475 79.5722 0.0916459 80.0381 0.279121C80.9377 0.638196 81.6635 1.33167 82.063 2.21412C82.2648 2.65911 82.3679 3.14252 82.365 3.63112Z" fill="#ED38C3"/>
<path d="M21.0352 53.4863V55.2617H17.7744V65H15.4629V55.2617H12.2197V53.4863H21.0352ZM24.7705 53.4863V65H22.4678V53.4863H24.7705ZM33.542 61.1064H35.7656L35.7744 61.1504C35.7979 62.3984 35.4199 63.3828 34.6406 64.1035C33.8672 64.8242 32.7861 65.1846 31.3975 65.1846C30.0088 65.1846 28.8838 64.7422 28.0225 63.8574C27.1611 62.9727 26.7305 61.8213 26.7305 60.4033V58.1182C26.7305 56.7119 27.1523 55.5635 27.9961 54.6729C28.8398 53.7822 29.9561 53.3369 31.3447 53.3369C32.7334 53.3369 33.8291 53.7002 34.6318 54.4268C35.4346 55.1533 35.8242 56.1494 35.8008 57.415L35.7832 57.4678H33.542C33.542 55.8975 32.792 55.1123 31.292 55.1123C30.6064 55.1123 30.0586 55.3906 29.6484 55.9473C29.2441 56.498 29.042 57.2158 29.042 58.1006V60.4033C29.042 61.2998 29.2559 62.0264 29.6836 62.583C30.1113 63.1338 30.6885 63.4092 31.415 63.4092C32.1416 63.4092 32.6777 63.2188 33.0234 62.8379C33.3691 62.457 33.542 61.8799 33.542 61.1064ZM41.7158 58.7334V60.5176H37.2598V58.7334H41.7158ZM51.7441 53.4863V55.2617H48.4834V65H46.1719V55.2617H42.9287V53.4863H51.7441ZM59.127 65L58.3447 62.5127H54.3018L53.5195 65H51.1904L55.1543 53.4863H57.5186L61.4648 65H59.127ZM56.3057 56.1758L54.873 60.7021H57.7822L56.3584 56.1758H56.3057ZM68.9971 61.1064H71.2207L71.2295 61.1504C71.2529 62.3984 70.875 63.3828 70.0957 64.1035C69.3223 64.8242 68.2412 65.1846 66.8525 65.1846C65.4639 65.1846 64.3389 64.7422 63.4775 63.8574C62.6162 62.9727 62.1855 61.8213 62.1855 60.4033V58.1182C62.1855 56.7119 62.6074 55.5635 63.4512 54.6729C64.2949 53.7822 65.4111 53.3369 66.7998 53.3369C68.1885 53.3369 69.2842 53.7002 70.0869 54.4268C70.8896 55.1533 71.2793 56.1494 71.2559 57.415L71.2383 57.4678H68.9971C68.9971 55.8975 68.2471 55.1123 66.7471 55.1123C66.0615 55.1123 65.5137 55.3906 65.1035 55.9473C64.6992 56.498 64.4971 57.2158 64.4971 58.1006V60.4033C64.4971 61.2998 64.7109 62.0264 65.1387 62.583C65.5664 63.1338 66.1436 63.4092 66.8701 63.4092C67.5967 63.4092 68.1328 63.2188 68.4785 62.8379C68.8242 62.457 68.9971 61.8799 68.9971 61.1064ZM77.1709 58.7334V60.5176H72.7148V58.7334H77.1709ZM87.1992 53.4863V55.2617H83.9385V65H81.627V55.2617H78.3838V53.4863H87.1992ZM95.2148 60.2979V58.2061C95.2148 57.292 94.9893 56.5537 94.5381 55.9912C94.0869 55.4229 93.4717 55.1387 92.6924 55.1387C91.9131 55.1387 91.3037 55.4199 90.8643 55.9824C90.4307 56.5391 90.2139 57.2803 90.2139 58.2061V60.2979C90.2139 61.2295 90.4336 61.9795 90.873 62.5479C91.3184 63.1104 91.9277 63.3916 92.7012 63.3916C93.4805 63.3916 94.0928 63.1104 94.5381 62.5479C94.9893 61.9795 95.2148 61.2295 95.2148 60.2979ZM97.5176 58.2236V60.2979C97.5176 61.7275 97.0693 62.8994 96.1729 63.8135C95.2822 64.7275 94.1221 65.1846 92.6924 65.1846C91.7549 65.1846 90.9229 64.9766 90.1963 64.5605C89.4697 64.1387 88.9072 63.5586 88.5088 62.8203C88.1104 62.0762 87.9111 61.2354 87.9111 60.2979V58.2236C87.9111 56.7998 88.3535 55.6309 89.2383 54.7168C90.123 53.7969 91.2744 53.3369 92.6924 53.3369C94.1162 53.3369 95.2764 53.7969 96.1729 54.7168C97.0693 55.6309 97.5176 56.7998 97.5176 58.2236ZM106.412 58.1533V59.9375H101.64V63.2246H107.221V65H99.3281V53.4863H107.203V55.2617H101.64V58.1533H106.412Z" fill="#ED38C3"/>
</svg>
